<?xml version="1.0" encoding="UTF-8" standalone="no"?>
<!DOCTYPE svg PUBLIC "-//W3C//DTD SVG 1.1//EN" "http://www.w3.org/Graphics/SVG/1.1/DTD/svg11.dtd">
<svg width="100%" height="100%" viewBox="0 0 532 104" version="1.1" xmlns="http://www.w3.org/2000/svg" xmlns:xlink="http://www.w3.org/1999/xlink" xml:space="preserve" xmlns:serif="http://www.serif.com/" style="fill-rule:evenodd;clip-rule:evenodd;stroke-linejoin:round;stroke-miterlimit:2;">
    <g transform="matrix(1,0,0,1,-111.614,-179.31)">
        <g transform="matrix(8.51177,0,0,8.51177,-1866.17,-1812.56)">
            <g transform="matrix(12,0,0,12,232.142,244.144)">
                <path d="M0.367,0.062L0.367,0.167L0.291,0.167C0.242,0.167 0.202,0.153 0.171,0.124C0.141,0.095 0.126,0.057 0.126,0.009L0.126,-0.229C0.126,-0.249 0.122,-0.262 0.113,-0.271C0.104,-0.279 0.089,-0.283 0.069,-0.283L0.018,-0.283L0.018,-0.394L0.069,-0.394C0.089,-0.394 0.104,-0.398 0.113,-0.407C0.122,-0.415 0.126,-0.429 0.126,-0.449L0.126,-0.686C0.126,-0.734 0.141,-0.772 0.171,-0.801C0.201,-0.83 0.241,-0.844 0.291,-0.844L0.367,-0.844L0.367,-0.74L0.299,-0.74C0.258,-0.74 0.238,-0.717 0.238,-0.671L0.238,-0.445C0.238,-0.411 0.232,-0.387 0.221,-0.372C0.21,-0.357 0.191,-0.346 0.165,-0.339C0.191,-0.332 0.21,-0.32 0.221,-0.305C0.232,-0.29 0.238,-0.266 0.238,-0.233L0.238,-0.007C0.238,0.039 0.258,0.062 0.299,0.062L0.367,0.062Z" style="fill:rgb(220,20,60);fill-rule:nonzero;"/>
            </g>
            <g transform="matrix(12,0,0,12,237,244.144)">
                <path d="M0.435,0.01C0.381,0.01 0.33,-0 0.283,-0.02C0.235,-0.04 0.194,-0.066 0.16,-0.1C0.125,-0.133 0.098,-0.174 0.078,-0.222C0.058,-0.27 0.048,-0.32 0.048,-0.372C0.048,-0.425 0.058,-0.476 0.078,-0.522C0.098,-0.57 0.125,-0.611 0.159,-0.644C0.193,-0.678 0.234,-0.704 0.282,-0.725C0.33,-0.744 0.381,-0.754 0.435,-0.754C0.492,-0.754 0.546,-0.743 0.597,-0.72C0.648,-0.697 0.692,-0.665 0.727,-0.623L0.628,-0.537C0.604,-0.565 0.576,-0.587 0.542,-0.602C0.509,-0.617 0.473,-0.625 0.435,-0.625C0.362,-0.625 0.302,-0.601 0.254,-0.553C0.207,-0.505 0.183,-0.445 0.183,-0.372C0.183,-0.299 0.207,-0.239 0.255,-0.191C0.302,-0.143 0.362,-0.119 0.435,-0.119C0.473,-0.119 0.508,-0.127 0.542,-0.142C0.576,-0.157 0.604,-0.179 0.628,-0.207L0.727,-0.121C0.692,-0.08 0.648,-0.048 0.597,-0.025C0.545,-0.002 0.491,0.01 0.435,0.01Z" style="fill:rgb(220,20,60);fill-rule:nonzero;"/>
            </g>
            <g transform="matrix(12,0,0,12,246.117,244.144)">
                <path d="M0.367,-0.579C0.38,-0.579 0.392,-0.578 0.404,-0.576L0.404,-0.447C0.382,-0.45 0.364,-0.452 0.35,-0.452C0.303,-0.452 0.266,-0.438 0.241,-0.411C0.215,-0.384 0.202,-0.346 0.202,-0.298L0.202,-0L0.075,-0L0.075,-0.574L0.184,-0.574L0.195,-0.501C0.217,-0.525 0.243,-0.545 0.272,-0.558C0.302,-0.572 0.334,-0.579 0.367,-0.579Z" style="fill:rgb(220,20,60);fill-rule:nonzero;"/>
            </g>
            <g transform="matrix(12,0,0,12,251.068,244.144)">
                <path d="M0.14,-0.66C0.118,-0.66 0.1,-0.668 0.084,-0.683C0.069,-0.698 0.061,-0.717 0.061,-0.738C0.061,-0.76 0.069,-0.778 0.084,-0.793C0.1,-0.808 0.118,-0.816 0.14,-0.816C0.161,-0.816 0.18,-0.808 0.196,-0.793C0.211,-0.778 0.219,-0.759 0.219,-0.738C0.219,-0.717 0.211,-0.698 0.196,-0.683C0.18,-0.668 0.161,-0.66 0.14,-0.66ZM0.202,-0.574L0.202,-0L0.075,-0L0.075,-0.574L0.202,-0.574Z" style="fill:rgb(220,20,60);fill-rule:nonzero;"/>
            </g>
            <g transform="matrix(12,0,0,12,254.402,244.144)">
                <path d="M0.202,-0.287L0.202,-0L0.075,-0L0.075,-0.574L0.185,-0.574L0.195,-0.507C0.24,-0.558 0.297,-0.584 0.365,-0.584C0.458,-0.584 0.523,-0.551 0.562,-0.485C0.584,-0.517 0.613,-0.541 0.646,-0.558C0.68,-0.575 0.717,-0.584 0.758,-0.584C0.829,-0.584 0.885,-0.562 0.926,-0.519C0.966,-0.475 0.987,-0.416 0.987,-0.341L0.987,-0L0.86,-0L0.86,-0.302C0.86,-0.356 0.85,-0.396 0.829,-0.422C0.809,-0.448 0.777,-0.461 0.735,-0.461C0.689,-0.461 0.654,-0.446 0.631,-0.417C0.607,-0.387 0.595,-0.344 0.595,-0.287L0.595,-0L0.468,-0L0.468,-0.302C0.468,-0.355 0.457,-0.395 0.437,-0.422C0.416,-0.448 0.385,-0.461 0.343,-0.461C0.297,-0.461 0.262,-0.446 0.238,-0.417C0.214,-0.387 0.202,-0.344 0.202,-0.287Z" style="fill:rgb(220,20,60);fill-rule:nonzero;"/>
            </g>
            <g transform="matrix(12,0,0,12,267.07,244.144)">
                <path d="M0.272,0.01C0.229,0.01 0.188,0.004 0.149,-0.008C0.109,-0.02 0.075,-0.037 0.046,-0.058L0.103,-0.159C0.128,-0.142 0.156,-0.129 0.186,-0.119C0.216,-0.11 0.245,-0.105 0.272,-0.105C0.309,-0.105 0.336,-0.11 0.354,-0.12C0.372,-0.129 0.381,-0.145 0.381,-0.166C0.381,-0.184 0.372,-0.198 0.356,-0.209C0.339,-0.22 0.311,-0.229 0.272,-0.237C0.202,-0.25 0.15,-0.271 0.118,-0.299C0.085,-0.328 0.069,-0.367 0.069,-0.416C0.069,-0.466 0.089,-0.507 0.13,-0.538C0.17,-0.569 0.224,-0.584 0.291,-0.584C0.366,-0.584 0.433,-0.567 0.49,-0.534L0.431,-0.432C0.406,-0.446 0.383,-0.456 0.362,-0.461C0.341,-0.466 0.317,-0.469 0.291,-0.469C0.261,-0.469 0.238,-0.465 0.221,-0.455C0.204,-0.446 0.196,-0.433 0.196,-0.416C0.196,-0.398 0.204,-0.384 0.219,-0.375C0.235,-0.365 0.264,-0.356 0.308,-0.346C0.376,-0.331 0.427,-0.309 0.459,-0.28C0.492,-0.251 0.508,-0.213 0.508,-0.166C0.508,-0.112 0.487,-0.069 0.444,-0.038C0.402,-0.006 0.345,0.01 0.272,0.01Z" style="fill:rgb(220,20,60);fill-rule:nonzero;"/>
            </g>
            <g transform="matrix(12,0,0,12,273.668,244.144)">
                <path d="M0.344,0.01C0.289,0.01 0.239,-0.003 0.192,-0.029C0.146,-0.055 0.11,-0.091 0.083,-0.137C0.057,-0.182 0.044,-0.232 0.044,-0.287C0.044,-0.342 0.057,-0.392 0.084,-0.438C0.111,-0.483 0.147,-0.519 0.192,-0.545C0.239,-0.571 0.289,-0.584 0.344,-0.584C0.385,-0.584 0.424,-0.576 0.461,-0.561C0.498,-0.546 0.53,-0.525 0.557,-0.499C0.584,-0.472 0.605,-0.44 0.62,-0.403C0.635,-0.366 0.643,-0.327 0.643,-0.287C0.643,-0.247 0.635,-0.209 0.62,-0.172C0.605,-0.135 0.584,-0.103 0.557,-0.076C0.53,-0.049 0.498,-0.028 0.461,-0.013C0.424,0.002 0.385,0.01 0.344,0.01ZM0.344,-0.115C0.392,-0.115 0.433,-0.132 0.466,-0.165C0.498,-0.197 0.514,-0.238 0.514,-0.287C0.514,-0.337 0.498,-0.378 0.465,-0.411C0.432,-0.444 0.392,-0.46 0.344,-0.46C0.295,-0.46 0.255,-0.444 0.222,-0.411C0.189,-0.378 0.173,-0.337 0.173,-0.287C0.173,-0.238 0.189,-0.197 0.222,-0.165C0.255,-0.132 0.295,-0.115 0.344,-0.115Z" style="fill:rgb(220,20,60);fill-rule:nonzero;"/>
            </g>
            <g transform="matrix(12,0,0,12,281.906,244.144)">
                <path d="M0.374,-0.584C0.45,-0.584 0.51,-0.563 0.553,-0.52C0.596,-0.477 0.617,-0.417 0.617,-0.341L0.617,-0L0.49,-0L0.49,-0.302C0.49,-0.356 0.479,-0.397 0.457,-0.422C0.435,-0.448 0.401,-0.461 0.354,-0.461C0.306,-0.461 0.268,-0.446 0.242,-0.416C0.215,-0.386 0.202,-0.343 0.202,-0.287L0.202,-0L0.075,-0L0.075,-0.574L0.185,-0.574L0.195,-0.508C0.243,-0.559 0.302,-0.584 0.374,-0.584Z" style="fill:rgb(220,20,60);fill-rule:nonzero;"/>
            </g>
            <g transform="matrix(12,0,0,12,290.121,244.144)">
                <path d="M0.114,0.167L0.038,0.167L0.038,0.062L0.106,0.062C0.147,0.062 0.167,0.039 0.167,-0.007L0.167,-0.233C0.167,-0.266 0.173,-0.29 0.184,-0.305C0.195,-0.32 0.214,-0.332 0.24,-0.339C0.214,-0.346 0.195,-0.357 0.184,-0.372C0.173,-0.387 0.167,-0.412 0.167,-0.445L0.167,-0.671C0.167,-0.717 0.147,-0.74 0.106,-0.74L0.038,-0.74L0.038,-0.844L0.114,-0.844C0.164,-0.844 0.204,-0.83 0.234,-0.801C0.265,-0.773 0.28,-0.734 0.28,-0.686L0.28,-0.449C0.28,-0.429 0.284,-0.415 0.292,-0.406C0.301,-0.398 0.315,-0.394 0.336,-0.394L0.387,-0.394L0.387,-0.283L0.336,-0.283C0.315,-0.283 0.301,-0.279 0.292,-0.271C0.284,-0.262 0.28,-0.249 0.28,-0.229L0.28,0.009C0.28,0.057 0.265,0.095 0.234,0.124C0.203,0.153 0.163,0.167 0.114,0.167Z" style="fill:rgb(220,20,60);fill-rule:nonzero;"/>
            </g>
        </g>
    </g>
</svg>
